HIERARCHY
ROOT Hips
{
	OFFSET 0.000000 0.000000 0.000000
	CHANNELS 6 Xposition Yposition Zposition Xrotation Yrotation Zrotation
	JOINT LeftUpLeg_virtual
	{
		OFFSET 0.000000 0.000000 0.000000
		CHANNELS 3 Xrotation Yrotation Zrotation
		JOINT LeftUpLeg
		{
			OFFSET 15.427100 -6.655098 0.678600
			CHANNELS 3 Xrotation Yrotation Zrotation
			JOINT LeftLeg
			{
				OFFSET 4.081073 -39.591068 13.024000
				CHANNELS 3 Xrotation Yrotation Zrotation
				JOINT LeftFoot
				{
					OFFSET -4.081074 -37.707932 -15.979700
					CHANNELS 3 Xrotation Yrotation Zrotation
					JOINT LeftToeBase
					{
						OFFSET 5.346399 -15.068900 20.645000
						CHANNELS 3 Xrotation Yrotation Zrotation
						JOINT LeftToe_End
						{
							OFFSET 2.754700 0.931300 11.300900
							CHANNELS 3 Xrotation Yrotation Zrotation
							End Site
							{
								OFFSET 0 0 0
							}
						}
					}
				}
			}
		}
	}
	JOINT RightUpLeg_virtual
	{
		OFFSET 0.000000 0.000000 0.000000
		CHANNELS 3 Xrotation Yrotation Zrotation
		JOINT RightUpLeg
		{
			OFFSET -15.569500 -6.655098 0.678600
			CHANNELS 3 Xrotation Yrotation Zrotation
			JOINT RightLeg
			{
				OFFSET -4.081825 -39.591045 13.023800
				CHANNELS 3 Xrotation Yrotation Zrotation
				JOINT RightFoot
				{
					OFFSET 4.081824 -37.707954 -15.979600
					CHANNELS 3 Xrotation Yrotation Zrotation
					JOINT RightToeBase
					{
						OFFSET -5.346400 -15.068900 20.645000
						CHANNELS 3 Xrotation Yrotation Zrotation
						JOINT RightToe_End
						{
							OFFSET -2.754700 0.931300 11.300900
							CHANNELS 3 Xrotation Yrotation Zrotation
							End Site
							{
								OFFSET 0 0 0
							}
						}
					}
				}
			}
		}
	}
	JOINT Spine_virtual
	{
		OFFSET 0.000000 0.000000 0.000000
		CHANNELS 3 Xrotation Yrotation Zrotation
		JOINT Spine
		{
			OFFSET -0.279200 12.230698 -2.892100
			CHANNELS 3 Xrotation Yrotation Zrotation
			JOINT Spine1
			{
				OFFSET -0.232667 10.192268 -1.242267
				CHANNELS 3 Xrotation Yrotation Zrotation
				JOINT Spine1_split
				{
					OFFSET -0.232667 10.192268 -1.242267
					CHANNELS 3 Xrotation Yrotation Zrotation
					JOINT Spine2
					{
						OFFSET -0.232667 10.192268 -1.242267
						CHANNELS 3 Xrotation Yrotation Zrotation
						JOINT Neck_virtual
						{
							OFFSET 0.000000 0.000000 0.000000
							CHANNELS 3 Xrotation Yrotation Zrotation
							JOINT Neck
							{
								OFFSET -0.418800 17.814194 8.416900
								CHANNELS 3 Xrotation Yrotation Zrotation
								JOINT Head
								{
									OFFSET 0.000000 7.031097 3.806800
									CHANNELS 3 Xrotation Yrotation Zrotation
									JOINT HeadTop_End
									{
										OFFSET 0.000000 24.646606 12.978600
										CHANNELS 3 Xrotation Yrotation Zrotation
										End Site
										{
											OFFSET 0 0 0
										}
									}
								}
							}
						}
						JOINT LeftShoulder_virtual
						{
							OFFSET 0.000000 0.000000 0.000000
							CHANNELS 3 Xrotation Yrotation Zrotation
							JOINT LeftShoulder
							{
								OFFSET 8.476499 7.247704 -3.868750
								CHANNELS 3 Xrotation Yrotation Zrotation
								JOINT LeftShoulder_split
								{
									OFFSET 8.476499 7.247704 -3.868750
									CHANNELS 3 Xrotation Yrotation Zrotation
									JOINT LeftArm
									{
										OFFSET 9.308998 -2.777710 0.208600
										CHANNELS 3 Xrotation Yrotation Zrotation
										JOINT LeftForeArm
										{
											OFFSET 29.972298 0.000000 0.000000
											CHANNELS 3 Xrotation Yrotation Zrotation
											JOINT LeftHand
											{
												OFFSET 26.026505 0.000000 0.000000
												CHANNELS 3 Xrotation Yrotation Zrotation
												End Site
												{
													OFFSET 0 0 0
												}
											}
										}
									}
								}
							}
						}
						JOINT RightShoulder_virtual
						{
							OFFSET 0.000000 0.000000 0.000000
							CHANNELS 3 Xrotation Yrotation Zrotation
							JOINT RightShoulder
							{
								OFFSET -7.570500 7.247704 -3.868750
								CHANNELS 3 Xrotation Yrotation Zrotation
								JOINT RightShoulder_split
								{
									OFFSET -7.570500 7.247704 -3.868750
									CHANNELS 3 Xrotation Yrotation Zrotation
									JOINT RightArm
									{
										OFFSET -9.308998 -2.777710 0.208500
										CHANNELS 3 Xrotation Yrotation Zrotation
										JOINT RightForeArm
										{
											OFFSET -29.972300 0.000000 0.000000
											CHANNELS 3 Xrotation Yrotation Zrotation
											JOINT RightHand
											{
												OFFSET -26.026505 0.000000 0.000000
												CHANNELS 3 Xrotation Yrotation Zrotation
												End Site
												{
													OFFSET 0 0 0
												}
											}
										}
									}
								}
							}
						}
					}
				}
			}
		}
	}
}
MOTION
Frames: 8
Frame Time: 0.03333333
-7.344754 84.409431 43.584007 0.000000 0.000000 0.000000 26.665829 0.331289 -19.891917 -68.275240 -2.416646 18.672018 24.118728 11.987061 -3.846461 13.306167 0.735991 4.299348 0.518941 0.088663 -0.678219 0.000000 0.000000 0.000000 28.490276 0.730249 -17.862878 4.677389 -20.574212 -17.869691 70.597901 -2.409580 -3.232428 25.526044 1.826019 9.582931 -1.250643 -0.314983 0.783447 0.000000 0.000000 0.000000 31.758365 4.693171 -19.523162 7.143858 14.174867 -9.367182 12.645032 11.359131 -8.270651 -0.226696 2.154356 -0.431951 0.000000 0.000000 0.000000 11.784064 11.341666 -8.228582 -10.418207 -7.262302 6.469880 -34.888480 -32.764513 14.860357 0.000000 0.000000 0.000000 12.322796 10.958840 -7.407546 -0.541570 5.082054 2.225414 0.357604 -0.574908 0.805752 27.121168 -42.255293 -19.173429 3.433069 -21.700693 -0.056316 0.000000 0.000000 0.000000 11.117660 11.399342 -8.037201 5.905127 19.168154 -8.488760 2.260933 -0.804952 0.775611 4.062128 61.597077 9.656777 0.825918 63.641893 -0.523184 0.000000 0.000000 0.000000 
-7.638631 83.739502 44.995056 0.000000 0.000000 0.000000 24.683786 1.948264 -18.745968 -67.649820 -1.129859 17.444669 27.675370 9.649942 -4.015642 10.722968 2.052347 4.611012 0.235337 0.113893 -0.747889 0.000000 0.000000 0.000000 26.772574 2.841585 -17.675949 1.057347 -20.739905 -16.670508 67.817590 -1.159636 -3.723949 25.779881 1.071458 5.910689 -0.612877 -0.246859 0.598272 0.000000 0.000000 0.000000 29.987816 6.372121 -19.125310 7.026740 11.879855 -9.950494 12.862893 10.671586 -8.367924 -0.394154 1.930872 -0.503148 0.000000 0.000000 0.000000 12.051994 10.577553 -8.271724 -10.740239 -7.146274 6.248248 -34.620415 -32.113350 15.292905 0.000000 0.000000 0.000000 12.755191 10.079143 -7.487067 -0.590897 4.953320 3.021990 0.428670 -0.417259 1.049701 24.831274 -45.490573 -13.050879 3.049062 -19.312088 -0.256793 0.000000 0.000000 0.000000 11.434099 10.508001 -8.097559 5.357366 18.325003 -7.256234 1.861054 -0.885344 0.081947 1.165468 55.071347 6.921078 0.825918 63.641893 -0.523184 0.000000 0.000000 0.000000 
-7.644636 83.392387 46.509529 0.000000 0.000000 0.000000 22.727637 3.292110 -17.969087 -66.701387 0.309586 16.552342 31.112437 7.386415 -3.925123 7.997499 2.844530 4.942217 0.032769 0.196330 -0.943960 0.000000 0.000000 0.000000 24.930141 4.763769 -17.413455 -2.591618 -20.971216 -15.630748 64.836042 0.590910 -4.216931 25.857921 0.333014 2.986408 -0.051724 -0.192939 -0.956841 0.000000 0.000000 0.000000 28.104775 7.875472 -18.794128 6.917867 9.693113 -10.516615 13.132956 9.691777 -8.445706 -0.496587 1.595732 -0.571299 0.000000 0.000000 0.000000 12.390393 9.519068 -8.328569 -11.116901 -6.933329 6.036154 -34.120688 -30.959612 15.984057 0.000000 0.000000 0.000000 13.164519 8.905248 -7.540614 -0.535653 4.763553 3.764025 0.301949 -0.135522 1.294379 20.374342 -48.773582 -8.642427 3.108070 -17.201616 -0.027017 0.000000 0.000000 0.000000 11.704075 9.370972 -8.122413 4.924466 17.142137 -7.141892 1.585236 -0.762705 -0.080926 -2.471941 49.389129 4.882476 0.825918 63.641893 -0.523184 0.000000 0.000000 0.000000 
-7.397120 83.255005 48.165367 0.000000 0.000000 0.000000 20.872262 4.626332 -17.390490 -65.190542 1.600447 15.919069 34.063356 5.659627 -3.475189 5.351133 3.135170 5.231413 0.202124 0.264569 -1.100953 0.000000 0.000000 0.000000 22.999813 6.462789 -17.274254 -6.298737 -21.434546 -14.981299 61.559819 2.454553 -4.876043 25.535432 -0.254551 1.108405 0.062034 -0.179043 -2.578875 0.000000 0.000000 0.000000 26.134821 9.095462 -18.553722 6.842484 7.607215 -11.065105 13.451992 8.267270 -8.433569 -0.498584 1.119231 -0.634039 0.000000 0.000000 0.000000 12.790450 8.058874 -8.325282 -11.488075 -6.558106 5.822399 -33.298074 -29.093249 16.996668 0.000000 0.000000 0.000000 13.536094 7.380626 -7.510818 -0.394330 4.466577 4.365459 -0.106425 0.197288 1.636243 13.559756 -51.653849 -6.345689 3.444068 -15.396018 0.380964 0.000000 0.000000 0.000000 11.969586 7.913781 -8.012944 4.599400 15.870160 -8.033500 1.494941 -0.521676 0.044345 -6.349766 44.853248 3.232474 0.825918 63.641893 -0.523184 0.000000 0.000000 0.000000 
-6.989025 83.334282 49.957848 0.000000 0.000000 0.000000 19.116796 5.683103 -17.180987 -63.215682 2.644072 15.729504 36.294505 4.605936 -2.751765 2.782943 3.042499 5.417778 0.691946 0.267938 -1.003393 0.000000 0.000000 0.000000 20.993041 7.750061 -17.314147 -10.018367 -22.268693 -14.806040 57.752091 4.176279 -5.729441 24.634716 -0.444951 0.451181 -0.478875 -0.231979 -2.299790 0.000000 0.000000 0.000000 24.028425 9.791071 -18.395270 6.766853 5.568528 -11.574420 13.775026 6.385829 -8.299950 -0.462930 0.483606 -0.716401 0.000000 0.000000 0.000000 13.207001 6.186114 -8.193118 -11.803443 -5.997691 5.586939 -32.134968 -26.469090 18.245093 0.000000 0.000000 0.000000 13.852785 5.526053 -7.350025 -0.209216 4.090722 4.846479 -0.467307 0.678002 2.016135 4.843091 -53.872786 -6.124420 3.619511 -13.932559 0.637717 0.000000 0.000000 0.000000 12.259484 6.141067 -7.744823 4.444393 14.809447 -9.783368 1.431454 -0.239409 0.262355 -10.304406 41.710210 1.942502 0.825918 63.641893 -0.523184 0.000000 0.000000 0.000000 
-6.443280 83.644539 51.782707 0.000000 0.000000 0.000000 17.287812 6.210449 -17.352995 -60.706735 3.527956 16.144918 37.847997 4.059120 -2.025269 0.270736 2.679461 5.533476 1.178808 0.190433 -0.677925 0.000000 0.000000 0.000000 19.040351 8.363759 -17.608202 -13.824591 -23.411419 -15.092941 53.118586 5.730047 -6.605536 23.154679 0.064105 1.196888 -1.741222 -0.401124 1.168152 0.000000 0.000000 0.000000 21.918692 10.058709 -18.560260 6.734654 3.657199 -11.878394 14.064040 4.162828 -7.981679 -0.403266 -0.225028 -0.769095 0.000000 0.000000 0.000000 13.571035 3.995629 -7.897589 -12.056938 -5.272040 5.306036 -30.757254 -23.155984 19.553256 0.000000 0.000000 0.000000 14.099965 3.427760 -7.038717 -0.041984 3.711983 5.285134 -0.774467 1.267410 2.329020 -4.842995 -55.538201 -7.687885 3.402306 -12.891070 0.633036 0.000000 0.000000 0.000000 12.585829 4.118946 -7.328317 4.427845 14.122989 -11.954505 1.364247 0.071456 0.404040 -15.141993 39.950654 1.647244 0.825918 63.641893 -0.523184 0.000000 0.000000 0.000000 
-5.772367 84.140945 53.495255 0.000000 0.000000 0.000000 15.401134 6.353813 -17.868209 -57.961539 4.455923 17.202818 38.761716 3.705929 -1.549297 -2.133433 2.114507 5.541399 1.210234 0.046757 -0.323936 0.000000 0.000000 0.000000 17.178095 8.353276 -18.230890 -17.644385 -24.791633 -15.716969 47.695238 7.300486 -6.992713 21.385987 1.390502 3.470958 -3.426714 -0.780233 6.908267 0.000000 0.000000 0.000000 19.875690 9.870803 -18.962470 6.706341 1.935226 -11.841768 14.231017 1.783292 -7.493473 -0.360148 -0.945998 -0.796705 0.000000 0.000000 0.000000 13.817806 1.668842 -7.440683 -12.270609 -4.440591 4.952631 -29.355812 -19.440916 20.754831 0.000000 0.000000 0.000000 14.269199 1.235516 -6.588584 0.055843 3.415020 5.819996 -1.042395 1.914648 2.517141 -14.527234 -56.884138 -10.580109 2.845206 -12.221811 0.371148 0.000000 0.000000 0.000000 12.901407 1.976556 -6.792366 4.510263 13.800007 -14.063016 1.447163 0.375442 0.581688 -21.554831 39.532261 3.244710 0.825918 63.641893 -0.523184 0.000000 0.000000 0.000000 
-4.901792 84.902473 54.984604 0.000000 0.000000 0.000000 13.600036 5.790875 -18.819273 -55.306040 5.555148 18.916562 39.119758 3.371030 -1.377941 -4.355434 1.523732 5.435246 0.765657 -0.125814 -0.255701 0.000000 0.000000 0.000000 15.444142 7.687024 -19.068170 -21.344398 -26.046436 -16.301010 41.506062 8.919805 -6.452253 19.439494 3.282993 6.982493 -4.715899 -1.245625 11.924744 0.000000 0.000000 0.000000 18.140907 9.289059 -19.841551 6.628066 0.332455 -11.347773 14.247287 -0.567978 -6.893537 -0.357690 -1.596299 -0.820125 0.000000 0.000000 0.000000 13.903043 -0.588144 -6.859600 -12.500810 -3.585977 4.517718 -28.126878 -15.674285 21.741088 0.000000 0.000000 0.000000 14.339023 -0.878441 -6.038958 0.049876 3.267462 6.551686 -1.211240 2.641815 2.568024 -23.758092 -58.143693 -14.590645 2.182040 -12.074026 0.044644 0.000000 0.000000 0.000000 13.144632 -0.150091 -6.207439 4.662565 13.694769 -15.829025 1.562929 0.546518 1.041493 -30.015580 39.985471 7.552900 0.825918 63.641893 -0.523184 0.000000 0.000000 0.000000 
